<?xml version="1.0" encoding="UTF-8" standalone="no"?>
<svg
   version="1.0"
   width="767.02368pt"
   height="741.66528pt"
   viewBox="0 0 767.02368 741.66528"
   preserveAspectRatio="xMidYMid meet"
   id="svg125"
   sodipodi:docname="icon.svg"
   inkscape:version="1.1.2 (0a00cf5339, 2022-02-04)"
   xmlns:inkscape="http://www.inkscape.org/namespaces/inkscape"
   xmlns:sodipodi="http://sodipodi.sourceforge.net/DTD/sodipodi-0.dtd"
   xmlns="http://www.w3.org/2000/svg"
   xmlns:svg="http://www.w3.org/2000/svg">
  <defs
     id="defs129" />
  <sodipodi:namedview
     id="namedview127"
     pagecolor="#020202"
     bordercolor="#666666"
     borderopacity="1.0"
     inkscape:pageshadow="2"
     inkscape:pageopacity="0"
     inkscape:pagecheckerboard="0"
     inkscape:document-units="pt"
     showgrid="false"
     inkscape:zoom="1.1145218"
     inkscape:cx="677.86919"
     inkscape:cy="737.98465"
     inkscape:window-width="1850"
     inkscape:window-height="1016"
     inkscape:window-x="70"
     inkscape:window-y="27"
     inkscape:window-maximized="1"
     inkscape:current-layer="svg125"
     fit-margin-top="0"
     fit-margin-left="0"
     fit-margin-right="0"
     fit-margin-bottom="0" />
  <g
     transform="matrix(0.19,0,0,-0.19,-913.0988,1268.9153)"
     fill="#ffffff"
     stroke="none"
     id="g123">
    <path
       d="m 5813,6665 c -29,-8 -72,-24 -94,-36 -38,-19 -282,-249 -681,-640 -135,-134 -160,-163 -189,-224 -59,-127 -51,-292 21,-405 16,-25 172,-182 347,-350 175,-167 379,-363 453,-435 315,-305 345,-332 422,-369 40,-19 84,-36 98,-38 l 25,-3 3,423 2,422 h -22 c -13,0 -51,13 -85,30 -51,23 -103,68 -274,232 -116,112 -218,216 -226,232 -23,44 -19,112 9,150 13,18 66,73 118,123 164,156 198,153 393,-35 73,-69 147,-141 166,-160 l 34,-34 228,228 c 126,126 229,232 229,235 0,13 -588,574 -630,601 -97,62 -234,83 -347,53 z"
       id="path111" />
    <path
       d="m 7610,6657 c -121,-35 -137,-49 -776,-684 -415,-413 -496,-497 -521,-548 -17,-33 -34,-75 -38,-92 l -7,-33 h 455 454 l 7,41 c 15,95 47,137 253,339 112,109 213,199 232,207 23,10 49,13 79,8 41,-6 57,-18 160,-118 146,-143 168,-190 121,-267 -12,-19 -87,-98 -166,-175 l -145,-140 128,-126 c 71,-69 176,-169 232,-223 l 104,-97 280,273 c 155,150 296,296 314,323 89,136 89,325 0,464 -29,45 -586,595 -753,743 -96,85 -155,110 -278,114 -54,2 -108,-1 -135,-9 z"
       id="path113" />
    <path
       d="m 6255,5258 c -3,-7 -4,-263 -3,-568 l 3,-555 568,-3 567,-2 v 570 570 h -565 c -443,0 -567,-3 -570,-12 z m 990,-558 v -425 l -422,-3 -423,-2 v 430 430 l 423,-2 422,-3 z"
       id="path115" />
    <path
       d="m 6510,4705 c 0,-267 2,-315 14,-315 8,0 106,-3 218,-6 111,-3 244,-3 295,1 l 93,7 v 314 314 h -310 -310 z m 500,158 c -23,-32 -92,-129 -152,-216 -61,-87 -116,-161 -123,-163 -6,-3 -41,-4 -77,-2 l -65,3 101,146 c 56,80 125,178 153,217 l 53,72 h 75 76 z"
       id="path117" />
    <path
       d="m 7425,5259 c -3,-8 -4,-196 -3,-419 l 3,-404 41,-8 c 84,-14 134,-51 346,-257 237,-231 254,-256 224,-334 -23,-62 -216,-251 -271,-266 -75,-20 -99,-6 -279,169 -91,88 -168,160 -173,160 -4,0 -112,-103 -238,-230 l -230,-230 215,-208 c 383,-370 413,-397 476,-428 55,-27 67,-29 174,-29 111,0 117,1 187,35 64,32 110,73 463,415 414,402 423,412 455,536 27,101 13,214 -39,318 -26,51 -299,321 -858,848 -233,221 -298,277 -350,301 -77,38 -136,50 -143,31 z"
       id="path119" />
    <path
       d="m 5340,4577 c -63,-62 -185,-180 -270,-262 -244,-235 -263,-267 -264,-440 -1,-108 0,-113 36,-187 34,-69 55,-92 220,-249 101,-95 242,-230 313,-299 283,-274 300,-289 358,-315 83,-38 174,-51 259,-37 140,24 136,20 749,630 530,526 619,622 619,670 0,9 -96,12 -445,12 h -445 l -25,-56 c -31,-71 -33,-73 -261,-295 -168,-164 -197,-188 -232,-194 -63,-10 -109,17 -232,139 -176,174 -174,191 54,415 80,80 146,148 146,151 0,11 -438,425 -452,428 -7,1 -65,-49 -128,-111 z"
       id="path121" />
  </g>
</svg>
