<?xml version="1.0" encoding="UTF-8" standalone="no"?>
<!-- Created with Inkscape (http://www.inkscape.org/) -->

<svg
   version="1.1"
   id="svg1"
   width="1365"
   height="768"
   viewBox="0 0 1365 768"
   sodipodi:docname="dbsaicle_logo_new_plain_new.svg"
   inkscape:version="1.4.2 (f4327f4, 2025-05-13)"
   xmlns:inkscape="http://www.inkscape.org/namespaces/inkscape"
   xmlns:sodipodi="http://sodipodi.sourceforge.net/DTD/sodipodi-0.dtd"
   xmlns="http://www.w3.org/2000/svg"
   xmlns:svg="http://www.w3.org/2000/svg">
  <defs
     id="defs1" />
  <sodipodi:namedview
     id="namedview1"
     pagecolor="#ffffff"
     bordercolor="#000000"
     borderopacity="0.25"
     inkscape:showpageshadow="2"
     inkscape:pageopacity="0.0"
     inkscape:pagecheckerboard="0"
     inkscape:deskcolor="#d1d1d1"
     showgrid="false"
     inkscape:zoom="0.92307692"
     inkscape:cx="682.5"
     inkscape:cy="384.04167"
     inkscape:window-width="1920"
     inkscape:window-height="1033"
     inkscape:window-x="-8"
     inkscape:window-y="-8"
     inkscape:window-maximized="1"
     inkscape:current-layer="g1" />
  <g
     inkscape:groupmode="layer"
     inkscape:label="Image"
     id="g1">
    <path
       style="fill:#000000"
       d="m 291.26096,402.24035 c -7.24163,-1.60561 -13.87257,-4.5841 -19.35951,-8.69591 -5.66317,-4.24387 -58.23479,-54.9129 -58.23479,-56.12724 0,-0.63748 2.22947,-3.355 4.95439,-6.03894 l 4.95438,-4.87989 16.57944,15.91748 c 34.49892,33.12149 41.86628,39.69042 47.30961,42.18246 10.37668,4.7506 23.18139,3.68256 31.86518,-2.65788 2.11035,-1.54087 20.07929,-18.3758 39.93097,-37.41097 33.25988,-31.89187 36.31535,-35.10269 38.91337,-40.89182 5.28427,-11.77494 3.15073,-26.1897 -5.24717,-35.45114 -2.06809,-2.28076 -15.91017,-15.75124 -30.76017,-29.9344 -14.85,-14.18317 -37.05223,-35.49209 -49.33828,-47.35317 -22.13942,-21.37362 -29.76666,-27.29693 -36.91172,-28.66562 l -3.25,-0.62256 v -7.32969 c 0,-4.03133 0.37105,-7.55902 0.82455,-7.8393 1.43573,-0.88732 11.45061,1.93517 17.56962,4.95165 4.10566,2.02396 10.03078,6.8555 19.52674,15.92278 7.49792,7.15943 27.34554,26.03905 44.10583,41.95471 42.56676,40.42162 53.32472,51.34849 56.25838,57.14171 8.19389,16.18079 7.50944,35.45844 -1.77422,49.97113 -3.79062,5.92569 -75.55805,75.20015 -82.5109,79.64473 -9.7556,6.23623 -24.01349,8.73776 -35.4057,6.21188 z m -180.5943,-1.11765 c -5.76327,-1.01034 -12.802927,-3.47993 -17.237097,-6.04696 -4.56934,-2.64529 -42.77956,-38.35936 -70.86815,-66.23857 C 7.0047933,313.39651 4.3559033,309.07816 2.4593233,296.06569 c -0.93701,-6.42877 -0.93363,-9.78431 0.0154,-15.31875 2.17158,-12.66366 4.82226,-16.74149 22.0942897,-33.99001 17.73319,-17.70903 42.16121,-40.9236 43.06272,-40.9236 0.33179,0 2.97529,2.40187 5.87444,5.33749 l 5.27119,5.3375 -27.91362,26.61931 c -32.5409,31.03203 -32.70973,31.27075 -32.67789,46.2057 0.0285,13.35349 1.27118,15.23545 25.14729,38.08293 52.7409,50.46872 56.728277,54.04692 62.729427,56.29224 7.26751,2.71912 15.81428,2.76641 22.86999,0.12654 8.73676,-3.26885 2.51879,2.34125 73.11214,-65.96467 30.10183,-29.12646 42.69746,-41.97302 44.79204,-45.6844 2.00635,-3.55507 3.44599,-5.06091 4.62196,-4.8345 0.93938,0.18086 4.5005,0.36327 7.9136,0.40535 l 6.20564,0.0765 -1.48792,4.21723 c -3.87529,10.98373 -5.49212,12.72759 -69.42336,74.87779 -44.6401,43.39649 -48.34804,46.7348 -55.52282,49.988 -9.05638,4.10636 -19.90596,5.70894 -28.47718,4.20635 z m -3.29304,-68.82239 c -5.55584,-2.03905 -9.091307,-4.75523 -20.049277,-15.40315 -5.77848,-5.61498 -10.85391,-11.54583 -12.29232,-14.3641 -3.53919,-6.93432 -4.1298,-15.65842 -1.55317,-22.94259 2.6082,-7.37344 3.70639,-8.71044 19.84302,-24.15802 l 13.476337,-12.90089 5.44511,5.37747 5.4451,5.37747 -13.90322,14.02342 c -7.646767,7.71287 -14.401667,15.00633 -15.010877,16.20767 -1.66688,3.28703 -1.33796,7.94399 0.86625,12.2646 2.05839,4.03478 17.083607,18.47748 21.785857,20.94124 3.61356,1.89333 10.70398,1.69129 13.88925,-0.39578 1.41459,-0.92688 11.27893,-10.23734 21.92075,-20.68992 12.8327,-12.60449 20.06607,-20.48642 21.47871,-23.40454 l 2.12993,-4.39986 h 7.92985 7.92984 l -0.66762,2.75 c -1.06565,4.38951 -4.92321,12.45073 -7.77615,16.25 -1.44553,1.925 -11.9403,12.3906 -23.32172,23.25689 -17.29433,16.51157 -21.56854,20.08428 -26.02057,21.75 -6.23364,2.3323 -15.88244,2.53835 -21.54508,0.46009 z m 187.79304,0.64125 c -6.32268,-1.70577 -10.31068,-4.03324 -16.54567,-9.65637 -11.18497,-10.08735 -24.95616,-23.87135 -24.90894,-24.93211 0.025,-0.56086 2.22507,-3.41224 4.88912,-6.3364 l 4.84373,-5.31665 14.18297,13.81665 c 15.20002,14.80743 18.64946,17.31665 23.80531,17.31665 5.72503,0 9.46557,-2.45082 19.36598,-12.68871 10.73722,-11.10322 12.39005,-14.81098 9.55492,-21.43436 -1.32858,-3.10382 -26.43491,-28.72467 -39.7978,-40.61341 -4.72377,-4.20266 -9.6531,-6.8202 -16.68372,-8.85927 -0.94179,-0.27315 -1.21404,-2.35304 -1,-7.63979 l 0.2941,-7.26446 4.48859,0.29498 c 2.55545,0.16794 7.63328,1.80752 11.79031,3.80697 6.30243,3.03135 10.296,6.3774 29.18039,24.44907 25.4672,24.37118 28.04071,28.04881 28.04071,40.07119 0,11.75565 -2.52041,16.57342 -15.41268,29.46147 -7.35579,7.35337 -12.71501,11.82814 -15.92361,13.29568 -5.25559,2.40379 -15.37085,3.52191 -20.16371,2.22887 z m -143.5,-128.58918 v -57.48095 l 2.25,-0.48627 c 1.2375,-0.26745 27.225,-0.38852 57.75,-0.26905 l 55.5,0.21722 0.25812,57.75 0.25813,57.75 h -58.00813 -58.00812 z m 101.29178,-0.2689 0.20822,-43.24985 -43.25,-1.5e-4 -43.25,-1.5e-4 v 43.51062 43.51063 l 43.04178,-0.26063 43.04179,-0.26062 z m -74.29178,0.14439 v -32.39454 h 31.51385 31.51386 l -0.26386,32.25 -0.26385,32.25 -31.25,0.14454 -31.25,0.14455 z m 29.15905,13.57532 c 3.48752,-4.96658 10.50345,-14.89873 15.59095,-22.07143 5.0875,-7.17271 9.25,-13.23414 9.25,-13.46986 0,-0.23571 -3.35729,-0.42857 -7.46064,-0.42857 h -7.46063 l -5.35673,7.25 c -2.94619,3.9875 -9.01668,12.65 -13.48997,19.25 -4.47329,6.6 -9.04547,13.125 -10.16041,14.5 -1.11493,1.375 -2.03715,2.8375 -2.04938,3.25 -0.0122,0.4125 3.31183,0.75 7.38681,0.75 h 7.40905 z m -67.05442,41.44762 c -11.63088,-3.12772 -15.93556,-6.49182 -47.120997,-36.8251 -8.53401,-8.30081 -26.98401,-26.08821 -41,-39.52755 -39.42553,-37.80348 -41.2546,-39.72768 -44.7627097,-47.09082 -5.27539,-11.07244 -5.92533,-25.31571 -1.73139,-37.942497 2.68636,-8.08786 8.7932297,-15.21708 32.5776897,-38.03151 12.32778,-11.825 28.72643,-27.62037 36.44144,-35.10082 11.70905,-11.35306 15.26381,-14.19045 21.50931,-17.1685997 14.694807,-7.00716997 29.757997,-7.26983997 43.708547,-0.76218 6.56125,3.06069 13.32313,9.0896097 49.27348,43.9323597 l 17.5,16.96084 -5.5594,5.61773 -5.5594,5.61773 -18.9406,-18.29238 c -39.75614,-38.39552 -39.00453,-37.72189 -45.09176,-40.41395 -5.01045,-2.21586 -6.94675,-2.52841 -13.83725,-2.23356 -11.37601,0.4868 -16.29964,3.21847 -30.511587,16.92805 -6.325,6.10143 -22.88076,21.96579 -36.79058,35.25414 -22.12846,21.1398 -25.69022,24.96737 -28.48684,30.612887 -2.76053,5.57262 -3.19133,7.48121 -3.16007,14 0.0265,5.53707 0.61304,8.82578 2.20162,12.34524 3.37889,7.48592 -2.26455,1.71354 63.71881,65.17458 13.74061,13.21536 30.615607,29.43529 37.499997,36.04429 11.31354,10.86098 15.20561,13.63446 22.26706,15.86748 1.47547,0.46658 1.75,1.81332 1.75,8.58478 0,4.41726 -0.1125,8.00176 -0.25,7.96557 -0.1375,-0.0362 -2.67792,-0.71872 -5.64537,-1.51671 z m 205.86121,-64.95284 -5.46584,-5.53535 6.5,-6.23385 c 3.575,-3.42861 16.00586,-15.34841 27.62412,-26.48845 18.50791,-17.74608 21.47837,-21.02573 23.98442,-26.4808 2.33357,-5.07964 2.86316,-7.61119 2.87588,-13.74722 0.0134,-6.4734 -0.43178,-8.4235 -3.1961,-14 -2.88174,-5.813397 -6.91318,-10.023097 -39.24361,-40.978967 -42.00272,-40.21693 -43.77952,-41.50055 -57.44389,-41.4992 -13.4325,10e-4 -15.24052,1.21645 -46.32659,31.13516 -53.14438,51.148667 -82.02046,80.482487 -84.27807,85.614037 l -2.08975,4.75 h -7.58405 -7.58404 l 0.5737,-3.53531 c 0.31553,-1.94443 1.73874,-6.10693 3.16269,-9.25 2.21319,-4.88521 7.19285,-10.28891 34.30714,-37.228587 17.44498,-17.33265 42.76831,-42.1274 56.27405,-55.09945 21.57476,-20.7222 25.48134,-24.04291 32.17874,-27.3529497 7.03656,-3.47766 8.45828,-3.80701 18.48513,-4.28227 12.72078,-0.60294 19.51731,0.91728 28.28023,6.3255997 6.98256,4.30951 77.20407,71.1743 82.08594,78.16208 10.41924,14.913817 10.80731,38.511087 0.87982,53.498867 -2.53555,3.82797 -56.80569,57.76202 -58.12197,57.76202 -0.22666,0 -2.87174,-2.49091 -5.87795,-5.53536 z M 136.1536,184.03456 c -9.14449,-3.16209 -13.80216,-6.84776 -36.08953,-28.55808 -25.304427,-24.64927 -26.864137,-26.92799 -26.792127,-39.14315 0.0651,-11.04264 2.46692,-15.29122 16.23504,-28.718107 14.547587,-14.18704 16.642957,-15.28189 29.247057,-15.28189 9.2258,0 9.79817,0.132 15.17624,3.5 3.07388,1.925 11.82798,9.61548 19.45357,17.08995 l 13.86471,13.589947 -5.14966,5.75772 -5.14965,5.75773 -15.3913,-14.58633 C 124.39053,87.172793 121.69019,85.614953 114.41666,87.784373 c -6.25129,1.86452 -24.268067,19.963147 -25.288697,25.403567 -1.47467,7.86068 -0.01,9.93727 22.082377,31.30171 20.14768,19.48408 27.79377,25.34368 33.07051,25.34368 2.3156,0 2.38581,0.23544 2.38581,8 v 8 l -2.75,-0.0326 c -1.5125,-0.0179 -5.00588,-0.81271 -7.76306,-1.76612 z m 171.69675,-27.51523 -5.26491,-5.33114 12.29061,-11.88907 c 16.11349,-15.58706 16.79061,-16.52707 16.79061,-23.30951 v -5.45517 L 320.9498,99.659063 c -11.49011,-11.66008 -14.99671,-13.66485 -21.70151,-12.40702 -3.99281,0.74905 -8.77454,4.82679 -29.92314,25.517697 -13.68463,13.38846 -16.7508,17.30195 -18.72904,23.90474 l -1.24603,4.15885 h -7.84171 c -6.08366,0 -7.84171,-0.31631 -7.84171,-1.41091 0,-2.80832 3.82645,-13.61723 6.33743,-17.90189 1.41319,-2.41143 11.70289,-13.2984 22.866,-24.193267 23.39908,-22.83682 27.44699,-25.49177 38.86843,-25.49314 10.83561,-0.001 14.69608,1.93441 27.67796,13.87828 15.16604,13.95338 17.75018,18.338497 17.75018,30.120927 0,11.93094 -1.74922,14.90016 -18.69572,31.73513 -7.62084,7.57068 -14.19348,13.88122 -14.60587,14.02344 -0.4124,0.14221 -3.11902,-2.14045 -6.01472,-5.07257 z"
       id="path1" />
  </g>
</svg>
