<?xml version="1.0" standalone="no"?>
<!DOCTYPE svg PUBLIC "-//W3C//DTD SVG 20010904//EN"
 "http://www.w3.org/TR/2001/REC-SVG-20010904/DTD/svg10.dtd">
<svg version="1.0" xmlns="http://www.w3.org/2000/svg"
 width="1365.000000pt" height="768.000000pt" viewBox="0 0 1365.000000 768.000000"
 preserveAspectRatio="xMidYMid meet">

<g transform="translate(0.000000,768.000000) scale(0.100000,-0.100000)"
fill="#000000" stroke="none">
<path d="M5813 6665 c-29 -8 -72 -24 -94 -36 -38 -19 -282 -249 -681 -640
-135 -134 -160 -163 -189 -224 -59 -127 -51 -292 21 -405 16 -25 172 -182 347
-350 175 -167 379 -363 453 -435 315 -305 345 -332 422 -369 40 -19 84 -36 98
-38 l25 -3 3 423 2 422 -22 0 c-13 0 -51 13 -85 30 -51 23 -103 68 -274 232
-116 112 -218 216 -226 232 -23 44 -19 112 9 150 13 18 66 73 118 123 164 156
198 153 393 -35 73 -69 147 -141 166 -160 l34 -34 228 228 c126 126 229 232
229 235 0 13 -588 574 -630 601 -97 62 -234 83 -347 53z"/>
<path d="M7610 6657 c-121 -35 -137 -49 -776 -684 -415 -413 -496 -497 -521
-548 -17 -33 -34 -75 -38 -92 l-7 -33 455 0 454 0 7 41 c15 95 47 137 253 339
112 109 213 199 232 207 23 10 49 13 79 8 41 -6 57 -18 160 -118 146 -143 168
-190 121 -267 -12 -19 -87 -98 -166 -175 l-145 -140 128 -126 c71 -69 176
-169 232 -223 l104 -97 280 273 c155 150 296 296 314 323 89 136 89 325 0 464
-29 45 -586 595 -753 743 -96 85 -155 110 -278 114 -54 2 -108 -1 -135 -9z"/>
<path d="M6255 5258 c-3 -7 -4 -263 -3 -568 l3 -555 568 -3 567 -2 0 570 0
570 -565 0 c-443 0 -567 -3 -570 -12z m990 -558 l0 -425 -422 -3 -423 -2 0
430 0 430 423 -2 422 -3 0 -425z"/>
<path d="M6510 4705 c0 -267 2 -315 14 -315 8 0 106 -3 218 -6 111 -3 244 -3
295 1 l93 7 0 314 0 314 -310 0 -310 0 0 -315z m500 158 c-23 -32 -92 -129
-152 -216 -61 -87 -116 -161 -123 -163 -6 -3 -41 -4 -77 -2 l-65 3 101 146
c56 80 125 178 153 217 l53 72 75 0 76 0 -41 -57z"/>
<path d="M7425 5259 c-3 -8 -4 -196 -3 -419 l3 -404 41 -8 c84 -14 134 -51
346 -257 237 -231 254 -256 224 -334 -23 -62 -216 -251 -271 -266 -75 -20 -99
-6 -279 169 -91 88 -168 160 -173 160 -4 0 -112 -103 -238 -230 l-230 -230
215 -208 c383 -370 413 -397 476 -428 55 -27 67 -29 174 -29 111 0 117 1 187
35 64 32 110 73 463 415 414 402 423 412 455 536 27 101 13 214 -39 318 -26
51 -299 321 -858 848 -233 221 -298 277 -350 301 -77 38 -136 50 -143 31z"/>
<path d="M5340 4577 c-63 -62 -185 -180 -270 -262 -244 -235 -263 -267 -264
-440 -1 -108 0 -113 36 -187 34 -69 55 -92 220 -249 101 -95 242 -230 313
-299 283 -274 300 -289 358 -315 83 -38 174 -51 259 -37 140 24 136 20 749
630 530 526 619 622 619 670 0 9 -96 12 -445 12 l-445 0 -25 -56 c-31 -71 -33
-73 -261 -295 -168 -164 -197 -188 -232 -194 -63 -10 -109 17 -232 139 -176
174 -174 191 54 415 80 80 146 148 146 151 0 11 -438 425 -452 428 -7 1 -65
-49 -128 -111z"/>
</g>
</svg>
